<?xml version="1.0" encoding="UTF-8" standalone="no"?>
<svg
   xmlns:dc="http://purl.org/dc/elements/1.1/"
   xmlns:cc="http://creativecommons.org/ns#"
   xmlns:rdf="http://www.w3.org/1999/02/22-rdf-syntax-ns#"
   xmlns:svg="http://www.w3.org/2000/svg"
   xmlns="http://www.w3.org/2000/svg"
   xmlns:sodipodi="http://sodipodi.sourceforge.net/DTD/sodipodi-0.dtd"
   xmlns:inkscape="http://www.inkscape.org/namespaces/inkscape"
   inkscape:version="1.0 (4035a4fb49, 2020-05-01)"
   sodipodi:docname="map_illustration.svg"
   version="1.1"
   viewBox="0 0 1200 942.21171"
   height="942.21173"
   width="1200"
   data-name="Layer 1"
   id="efaf6d37-ad8b-408b-a167-fb47e2b6544c">
  <metadata
     id="metadata70">
    <rdf:RDF>
      <cc:Work
         rdf:about="">
        <dc:format>image/svg+xml</dc:format>
        <dc:type
           rdf:resource="http://purl.org/dc/dcmitype/StillImage" />
        <dc:title>Map dark</dc:title>
      </cc:Work>
    </rdf:RDF>
  </metadata>
  <sodipodi:namedview
     inkscape:current-layer="efaf6d37-ad8b-408b-a167-fb47e2b6544c"
     inkscape:window-maximized="1"
     inkscape:window-y="0"
     inkscape:window-x="0"
     inkscape:cy="332.53974"
     inkscape:cx="541.99756"
     inkscape:zoom="0.81580467"
     fit-margin-bottom="0"
     fit-margin-right="0"
     fit-margin-left="0"
     fit-margin-top="0"
     showgrid="false"
     id="namedview68"
     inkscape:window-height="1003"
     inkscape:window-width="1920"
     inkscape:pageshadow="2"
     inkscape:pageopacity="0"
     guidetolerance="10"
     gridtolerance="10"
     objecttolerance="10"
     borderopacity="1"
     bordercolor="#666666"
     pagecolor="#ffffff" />
  <defs
     id="defs19">
    <linearGradient
       gradientUnits="userSpaceOnUse"
       y2="104.90687"
       x2="535.45074"
       y1="779.24414"
       x1="535.45074"
       id="eaeac4a1-6091-43b3-af38-ae8114f9a62f">
      <stop
         id="stop2"
         stop-opacity="0.25"
         stop-color="gray"
         offset="0" />
      <stop
         id="stop4"
         stop-opacity="0.12"
         stop-color="gray"
         offset="0.53514" />
      <stop
         id="stop6"
         stop-opacity="0.1"
         stop-color="gray"
         offset="1" />
    </linearGradient>
    <clipPath
       transform="translate(-64.54927 -7.92449)"
       id="b609a8ad-8ad7-4296-9cf1-6f9923717ce3">
      <polygon
         id="polygon9"
         fill="#6c63ff"
         points="220.644,734.556 220.644,139.96 472.596,158.162 729.989,139.96 981.786,174.341 981.786,641.525 889.286,734.556 724.703,734.556 473.645,758.825 " />
    </clipPath>
    <linearGradient
       gradientUnits="userSpaceOnUse"
       y2="620.07623"
       x2="873.18634"
       y1="742.81097"
       x1="873.18634"
       id="eaa4df2b-8460-421b-8c86-0d729e8c7ac3">
      <stop
         id="stop12"
         stop-opacity="0.12"
         offset="0" />
      <stop
         id="stop14"
         stop-opacity="0.09"
         offset="0.55135" />
      <stop
         id="stop16"
         stop-opacity="0.02"
         offset="1" />
    </linearGradient>
  </defs>
  <title
     id="title21">Map dark</title>
  <g
     transform="matrix(1.3972416,0,0,1.3972416,-171.79225,-146.58042)"
     id="g917">
    <polygon
       style="fill:url(#eaeac4a1-6091-43b3-af38-ae8114f9a62f)"
       points="940.945,639.909 829.064,752.8 669.299,752.8 397.178,779.244 122.951,752.8 122.951,104.907 396.041,124.74 675.029,104.907 947.951,142.37 "
       fill="url(#eaeac4a1-6091-43b3-af38-ae8114f9a62f)"
       id="polygon23" />
    <polygon
       points="933.289,633.955 823.856,743.794 667.586,743.794 401.418,769.524 133.19,743.794 133.19,113.412 400.306,132.709 673.19,113.412 940.142,149.863 "
       fill="#ffffff"
       id="polygon25" />
    <polygon
       points="917.237,633.6 824.736,726.631 660.154,726.631 409.096,750.901 156.095,726.631 156.095,132.035 408.047,150.237 665.44,132.035 917.237,166.417 "
       fill="#6c63ff"
       id="polygon27" />
    <g
       clip-path="url(#b609a8ad-8ad7-4296-9cf1-6f9923717ce3)"
       id="g31">
      <polygon
         points="441.726,805.828 491.686,825.64 546.71,642.823 1119.079,959.789 1142.046,905.143 564.089,585.083 710.891,97.332 660.931,77.52 589.788,313.893 22.967,0 0,54.646 572.409,371.634 "
         fill="#ffffff"
         id="polygon29" />
    </g>
    <polygon
       style="fill:url(#eaa4df2b-8460-421b-8c86-0d729e8c7ac3)"
       points="933.289,624.847 813.083,742.811 815.019,620.076 "
       fill="url(#eaa4df2b-8460-421b-8c86-0d729e8c7ac3)"
       id="polygon33" />
    <polygon
       points="518.951,624.576 156.095,452.489 156.095,388.993 518.844,549.605 542.951,599.576 "
       fill="#ffffff"
       id="polygon35" />
    <polygon
       points="933.289,633.957 823.856,742.811 825.618,629.555 "
       fill="#ffffff"
       id="polygon37" />
    <polygon
       points="648.951,647.576 800.309,150.451 860.519,158.672 690.951,673.576 "
       fill="#ffffff"
       id="polygon39" />
    <polyline
       points="408.047 750.901 659.999 726.631 659.999 132.035 408.047 150.237"
       opacity="0.1"
       id="polyline41" />
    <path
       d="m 703.348,356.36044 c 0,48.0293 -86.96475,184.04167 -86.96475,184.04167 0,0 -86.96474,-136.01237 -86.96474,-184.04167 a 86.96475,86.96475 0 1 1 173.92949,0 z"
       transform="translate(-64.54927,-7.92449)"
       fill="#ff5252"
       id="path43" />
    <circle
       cx="551.83405"
       cy="342.36862"
       r="26.29167"
       fill="#ffffff"
       id="circle45" />
    <polygon
       points="784.67,388.993 917.237,423.009 917.237,486.505 754.951,428.576 "
       fill="#ffffff"
       id="polygon47" />
    <polygon
       points="334.01,536.866 333.951,506.576 279.434,510.983 245.951,742.576 283.951,750.576 "
       fill="#ffffff"
       id="polygon49" />
    <polygon
       points="278.084,208.643 240.514,426.371 269.604,442.076 338.951,208.576 "
       fill="#ffffff"
       id="polygon51" />
    <circle
       cx="349.95074"
       cy="165.57552"
       r="8"
       fill="#ff5252"
       id="circle53" />
    <circle
       cx="253.95073"
       cy="579.5755"
       r="8"
       fill="#ff5252"
       id="circle55" />
    <circle
       cx="245.95073"
       cy="638.5755"
       r="8"
       fill="#ff5252"
       id="circle57" />
    <circle
       cx="330.95074"
       cy="624.5755"
       r="8"
       fill="#ff5252"
       id="circle59" />
    <circle
       cx="193.95073"
       cy="384.5755"
       r="8"
       fill="#ff5252"
       id="circle61" />
    <circle
       cx="823.95074"
       cy="376.5755"
       r="8"
       fill="#ff5252"
       id="circle63" />
    <circle
       cx="754.95074"
       cy="654.5755"
       r="8"
       fill="#ff5252"
       id="circle65" />
  </g>
</svg>
